<svg width="120" height="33" viewBox="0 0 120 33" fill="none" xmlns="http://www.w3.org/2000/svg">
<rect y="0.539062" width="32" height="32" rx="1" fill="white"/>
<path fill-rule="evenodd" clip-rule="evenodd" d="M20.0153 16.3315C20.2812 15.6742 19.7974 14.9566 19.0883 14.9566H18.9047C18.3525 14.9566 17.9047 14.5089 17.9047 13.9566V12.8467C17.9047 12.2644 18.3826 12.3192 18.9714 12.3192H19.0381C19.5904 12.3192 20.0381 11.8715 20.0381 11.3192V10.6819C20.0381 10.1296 19.5904 9.68188 19.0381 9.68188H17.9047C17.0561 9.68188 16.2421 10.0153 15.642 10.6088C15.0419 11.2024 14.7047 12.0074 14.7047 12.8467V13.9566C14.7047 14.5089 14.257 14.9566 13.7047 14.9566H13.5714C13.0191 14.9566 12.5714 15.4043 12.5714 15.9566V16.594C12.5714 17.1463 13.0191 17.594 13.5714 17.594H13.7047C14.257 17.594 14.7047 18.0417 14.7047 18.594V22.3962C14.7047 22.9485 15.1525 23.3962 15.7047 23.3962H16.9047C17.457 23.3962 17.9047 22.9485 17.9047 22.3962V18.5496C17.9047 18.0218 18.3326 17.594 18.8604 17.594V17.594C19.2498 17.594 19.6003 17.3577 19.7463 16.9966L20.0153 16.3315Z" fill="#9893A3"/>
<rect x="44" y="0.539062" width="32" height="32" rx="1" fill="white"/>
<g clip-path="url(#clip0_172_3409)">
<path d="M68.2415 11.7287C67.8094 12.3714 67.2794 12.9192 66.6513 13.3722C66.6575 13.4937 66.6606 13.631 66.6606 13.7842C66.6606 14.6351 66.5365 15.487 66.2884 16.34C66.0403 17.193 65.6613 18.0094 65.1514 18.7893C64.6415 19.5692 64.0342 20.2602 63.3293 20.8621C62.6245 21.4641 61.7772 21.9441 60.7876 22.302C59.7979 22.66 58.7372 22.839 57.6056 22.839C55.8395 22.839 54.213 22.3622 52.7263 21.4086C52.9902 21.438 53.2433 21.4527 53.4856 21.4527C54.961 21.4527 56.2788 20.9982 57.439 20.0893C56.7511 20.0767 56.135 19.8649 55.5907 19.454C55.0464 19.0431 54.6719 18.518 54.4671 17.8788C54.6695 17.9173 54.8693 17.9366 55.0665 17.9366C55.3504 17.9366 55.6297 17.8996 55.9044 17.8256C55.1703 17.6785 54.5612 17.3129 54.0773 16.7286C53.5934 16.1443 53.3514 15.4699 53.3514 14.7055V14.6661C53.802 14.9156 54.2827 15.0483 54.7934 15.0642C54.3585 14.7743 54.0137 14.3962 53.7589 13.93C53.5042 13.4637 53.3768 12.9592 53.3768 12.4163C53.3768 11.8438 53.5203 11.3106 53.8072 10.8169C54.6056 11.7966 55.573 12.5796 56.7095 13.166C57.8459 13.7523 59.0651 14.078 60.3671 14.1429C60.3115 13.9115 60.2837 13.67 60.2836 13.4184C60.2836 12.54 60.5945 11.79 61.2162 11.1683C61.8379 10.5467 62.5879 10.2358 63.4664 10.2358C64.386 10.2358 65.1607 10.5707 65.7903 11.2405C66.5097 11.098 67.1832 10.8402 67.811 10.4673C67.5691 11.2284 67.1031 11.8156 66.4129 12.2288C67.0473 12.1534 67.6568 11.9867 68.2414 11.7287H68.2415Z" fill="#9893A3"/>
</g>
<rect x="88" y="0.539062" width="32" height="32" rx="1" fill="white"/>
<g clip-path="url(#clip1_172_3409)">
<path d="M101.072 14.6134H98.468V22.2379H101.072V14.6134Z" fill="#9893A3"/>
<path d="M100.634 11.0551C100.386 10.9049 100.094 10.8247 99.7959 10.8247C99.5968 10.8247 99.3997 10.8604 99.216 10.9298C99.0322 10.9991 98.8653 11.1008 98.725 11.2289C98.5847 11.357 98.4736 11.509 98.3982 11.6762C98.3229 11.8434 98.2846 12.0225 98.2858 12.2031C98.2875 12.4738 98.3775 12.738 98.5445 12.9624C98.7115 13.1867 98.9479 13.3612 99.224 13.4637C99.5 13.5662 99.8034 13.5922 100.096 13.5385C100.388 13.4847 100.656 13.3535 100.867 13.1616C101.077 12.9696 101.22 12.7254 101.278 12.4597C101.335 12.1941 101.305 11.9189 101.19 11.669C101.076 11.419 100.882 11.2054 100.634 11.0551Z" fill="#9893A3"/>
<path d="M105.251 14.613H102.743L102.734 22.2533H105.338V18.4804C105.338 17.4879 105.546 16.527 106.9 16.527C108.254 16.527 108.254 17.6691 108.254 18.5513V22.2375H110.857V18.055C110.857 15.9993 110.328 14.4239 107.724 14.4239C107.228 14.4063 106.736 14.5113 106.3 14.7277C105.865 14.9441 105.502 15.2638 105.251 15.6527V14.613Z" fill="#9893A3"/>
</g>
<defs>
<clipPath id="clip0_172_3409">
<rect x="52.7273" y="10.2358" width="15.5152" height="12.6032" rx="1" fill="white"/>
</clipPath>
<clipPath id="clip1_172_3409">
<rect x="96.7274" y="10.2361" width="15.5152" height="12.6032" rx="1" fill="white"/>
</clipPath>
</defs>
</svg>
